<svg xmlns="http://www.w3.org/2000/svg" viewBox="0 0 1280 640">
  <rect width="1280" height="640" fill="#f7f8fa"/>
  <path d="M80 80h1120v480H80z" fill="#ffffff" stroke="#d9dee8" stroke-width="2"/>
  <path d="M120 128h1040M120 512h1040" stroke="#e6eaf0" stroke-width="2"/>
  <text x="120" y="134" fill="#667085" font-family="Inter, Arial, sans-serif" font-size="22" letter-spacing="0">Moonweave Research</text>
  <g transform="translate(128 150) scale(.82)">
    <rect x="116" y="92" width="278" height="328" rx="28" fill="#ffffff" stroke="#1f2937" stroke-width="18"/>
    <path d="M166 166h132M166 222h174M166 278h102" stroke="#667085" stroke-width="18" stroke-linecap="round"/>
    <path d="M96 386c72-58 134-66 196-26 56 36 104 22 154-42" fill="none" stroke="#2f5f9f" stroke-width="14" stroke-linecap="round"/>
    <circle cx="96" cy="386" r="14" fill="#ffffff" stroke="#2f5f9f" stroke-width="8"/>
    <circle cx="292" cy="360" r="14" fill="#ffffff" stroke="#2f5f9f" stroke-width="8"/>
    <circle cx="446" cy="318" r="14" fill="#ffffff" stroke="#2f5f9f" stroke-width="8"/>
    <path d="M332 344l44 44 72-92" fill="none" stroke="#1f2937" stroke-width="18" stroke-linecap="round" stroke-linejoin="round" opacity="0.88"/>
  </g>
  <text x="560" y="260" fill="#111827" font-family="Inter, Arial, sans-serif" font-size="80" font-weight="760">ref-verify</text>
  <text x="564" y="326" fill="#4b5563" font-family="Inter, Arial, sans-serif" font-size="32">Citation checks before manuscript claims</text>
  <text x="564" y="388" fill="#2f5f9f" font-family="Inter, Arial, sans-serif" font-size="24">CrossRef / Semantic Scholar / PubMed / retractions</text>
  <path d="M564 440h360" stroke="#d9dee8" stroke-width="2"/>
</svg>
