<svg xmlns="http://www.w3.org/2000/svg" viewBox="0 0 1280 640">
  <defs>
    <pattern id="grid" width="40" height="40" patternUnits="userSpaceOnUse">
      <path d="M40 0H0v40" fill="none" stroke="#dfe5ed" stroke-width="1"/>
    </pattern>
    <linearGradient id="panel" x1="80" y1="80" x2="432" y2="560" gradientUnits="userSpaceOnUse">
      <stop offset="0" stop-color="#17243a"/>
      <stop offset="1" stop-color="#28506f"/>
    </linearGradient>
  </defs>
  <rect width="1280" height="640" fill="#eef2f6"/>
  <rect x="80" y="80" width="1120" height="480" rx="22" fill="#ffffff"/>
  <rect x="80" y="80" width="1120" height="480" rx="22" fill="url(#grid)" opacity="0.42"/>
  <rect x="80" y="80" width="354" height="480" rx="22" fill="url(#panel)"/>
  <path d="M434 80v480" stroke="#d9dee8" stroke-width="2"/>
  <text x="488" y="146" fill="#667085" font-family="Inter, Arial, sans-serif" font-size="22">Moonweave Research</text>
  <g transform="translate(92 148) scale(.72)">
    <rect x="108" y="82" width="288" height="342" rx="34" fill="#ffffff" stroke="#111827" stroke-width="24"/>
    <path d="M162 164h136M162 224h184M162 284h110" stroke="#667085" stroke-width="22" stroke-linecap="round"/>
    <path d="M82 392c74-64 140-74 210-28 60 40 116 24 178-48" fill="none" stroke="#2f5f9f" stroke-width="20" stroke-linecap="round"/>
    <circle cx="82" cy="392" r="18" fill="#ffffff" stroke="#2f5f9f" stroke-width="10"/>
    <circle cx="292" cy="364" r="17" fill="#ffffff" stroke="#2f5f9f" stroke-width="10"/>
    <circle cx="470" cy="316" r="18" fill="#ffffff" stroke="#2f6f5f" stroke-width="10"/>
    <path d="M332 346l42 42 76-96" fill="none" stroke="#111827" stroke-width="24" stroke-linecap="round" stroke-linejoin="round"/>
  </g>
  <text x="488" y="280" fill="#111827" font-family="Inter, Arial, sans-serif" font-size="82" font-weight="760">ref-verify</text>
  <text x="492" y="348" fill="#4b5563" font-family="Inter, Arial, sans-serif" font-size="32">Citation checks before manuscript claims</text>
  <text x="492" y="414" fill="#2f5f9f" font-family="Inter, Arial, sans-serif" font-size="25">CrossRef / Semantic Scholar / PubMed / retractions</text>
  <path d="M492 468h386" stroke="#cfd6e2" stroke-width="3"/>
</svg>
